<svg xmlns="http://www.w3.org/2000/svg" width="28" height="28" viewBox="0 0 28 28">
  <defs>
    <style>
      .cls-1, .cls-2, .cls-4 {
        fill: none;
      }

      .cls-1, .cls-2 {
        stroke: #13244a;
      }

      .cls-2 {
        stroke-linecap: round;
        stroke-linejoin: round;
      }

      .cls-3 {
        stroke: none;
      }
    </style>
  </defs>
  <g id="그룹_651" data-name="그룹 651" transform="translate(-5978 -3076)">
    <g id="그룹_48" data-name="그룹 48" transform="translate(5978 3076)">
      <g id="사각형_82" data-name="사각형 82" class="cls-1">
        <rect class="cls-3" width="28" height="28" rx="3"/>
        <rect class="cls-4" x="0.5" y="0.5" width="27" height="27" rx="2.5"/>
      </g>
      <g id="사각형_83" data-name="사각형 83" class="cls-1" transform="translate(9 1)">
        <rect class="cls-3" width="1" height="27"/>
        <rect class="cls-4" x="0.5" y="0.5" height="26"/>
      </g>
      <g id="사각형_84" data-name="사각형 84" class="cls-1" transform="translate(18 1)">
        <rect class="cls-3" width="1" height="27"/>
        <rect class="cls-4" x="0.5" y="0.5" height="26"/>
      </g>
      <g id="사각형_85" data-name="사각형 85" class="cls-1" transform="translate(28 18) rotate(90)">
        <rect class="cls-3" width="1" height="27"/>
        <rect class="cls-4" x="0.5" y="0.5" height="26"/>
      </g>
      <g id="사각형_86" data-name="사각형 86" class="cls-1" transform="translate(27 9) rotate(90)">
        <rect class="cls-3" width="1" height="27"/>
        <rect class="cls-4" x="0.5" y="0.5" height="26"/>
      </g>
    </g>
    <g id="타원_14" data-name="타원 14" class="cls-1" transform="translate(5980 3078)">
      <circle class="cls-3" cx="3" cy="3" r="3"/>
      <circle class="cls-4" cx="3" cy="3" r="2.5"/>
    </g>
    <g id="타원_15" data-name="타원 15" class="cls-1" transform="translate(5989 3087)">
      <circle class="cls-3" cx="3" cy="3" r="3"/>
      <circle class="cls-4" cx="3" cy="3" r="2.5"/>
    </g>
    <g id="타원_16" data-name="타원 16" class="cls-1" transform="translate(5980 3087)">
      <circle class="cls-3" cx="3" cy="3" r="3"/>
      <circle class="cls-4" cx="3" cy="3" r="2.5"/>
    </g>
    <g id="타원_17" data-name="타원 17" class="cls-1" transform="translate(5998 3096)">
      <circle class="cls-3" cx="3" cy="3" r="3"/>
      <circle class="cls-4" cx="3" cy="3" r="2.5"/>
    </g>
    <g id="그룹_49" data-name="그룹 49" transform="translate(5989.6 3078.369)">
      <g id="사각형_87" data-name="사각형 87" class="cls-2" transform="translate(0.708) rotate(45)">
        <rect class="cls-3" width="5.949" height="1" rx="0.5"/>
        <rect class="cls-4" x="0.5" y="0.5" width="4.949"/>
      </g>
      <g id="사각형_88" data-name="사각형 88" class="cls-2" transform="translate(4.914 0.809) rotate(135)">
        <rect class="cls-3" width="5.949" height="1" rx="0.5"/>
        <rect class="cls-4" x="0.5" y="0.5" width="4.949"/>
      </g>
    </g>
    <g id="그룹_50" data-name="그룹 50" transform="translate(5998.6 3078.369)">
      <g id="사각형_87-2" data-name="사각형 87" class="cls-2" transform="translate(0.708) rotate(45)">
        <rect class="cls-3" width="5.949" height="1" rx="0.5"/>
        <rect class="cls-4" x="0.5" y="0.5" width="4.949"/>
      </g>
      <g id="사각형_88-2" data-name="사각형 88" class="cls-2" transform="translate(4.914 0.809) rotate(135)">
        <rect class="cls-3" width="5.949" height="1" rx="0.5"/>
        <rect class="cls-4" x="0.5" y="0.5" width="4.949"/>
      </g>
    </g>
    <g id="그룹_51" data-name="그룹 51" transform="translate(5998.6 3087.492)">
      <g id="사각형_87-3" data-name="사각형 87" class="cls-2" transform="translate(0.708) rotate(45)">
        <rect class="cls-3" width="5.949" height="1" rx="0.5"/>
        <rect class="cls-4" x="0.5" y="0.5" width="4.949"/>
      </g>
      <g id="사각형_88-3" data-name="사각형 88" class="cls-2" transform="translate(4.914 0.809) rotate(135)">
        <rect class="cls-3" width="5.949" height="1" rx="0.5"/>
        <rect class="cls-4" x="0.5" y="0.5" width="4.949"/>
      </g>
    </g>
    <g id="그룹_52" data-name="그룹 52" transform="translate(5989.6 3096.616)">
      <g id="사각형_87-4" data-name="사각형 87" class="cls-2" transform="translate(0.708) rotate(45)">
        <rect class="cls-3" width="5.949" height="1" rx="0.5"/>
        <rect class="cls-4" x="0.5" y="0.5" width="4.949"/>
      </g>
      <g id="사각형_88-4" data-name="사각형 88" class="cls-2" transform="translate(4.914 0.809) rotate(135)">
        <rect class="cls-3" width="5.949" height="1" rx="0.5"/>
        <rect class="cls-4" x="0.5" y="0.5" width="4.949"/>
      </g>
    </g>
    <g id="그룹_53" data-name="그룹 53" transform="translate(5980.6 3096.492)">
      <g id="사각형_87-5" data-name="사각형 87" class="cls-2" transform="translate(0.708) rotate(45)">
        <rect class="cls-3" width="5.949" height="1" rx="0.5"/>
        <rect class="cls-4" x="0.5" y="0.5" width="4.949"/>
      </g>
      <g id="사각형_88-5" data-name="사각형 88" class="cls-2" transform="translate(4.914 0.809) rotate(135)">
        <rect class="cls-3" width="5.949" height="1" rx="0.5"/>
        <rect class="cls-4" x="0.5" y="0.5" width="4.949"/>
      </g>
    </g>
  </g>
</svg>
