<svg xmlns="http://www.w3.org/2000/svg" width="28.392" height="28.706" viewBox="0 0 28.392 28.706">
  <defs>
    <style>
      .cls-1 {
        fill: none;
        stroke: #13244a;
      }
    </style>
  </defs>
  <path id="패스_488" data-name="패스 488" class="cls-1" d="M5875.237,3088.415s-2.037.28-2.584-.471-.648-1.485-.46-1.741,1.007-1.246,1.007-1.246l11.806-11.806a1.164,1.164,0,0,1,1.595,0l3.256,3.263,9.353,9.345a1.771,1.771,0,0,1,.2,1.174c-.144.59-.128,1.213-1.133,1.324a9.662,9.662,0,0,1-1.946,0v10.2a1.988,1.988,0,0,1-.7,1.267c-.594.4-.271.566-2.13.593s-3.4,0-3.4,0-.782,0-.782-1.052v-6.228s.011-1.518-1.13-1.629-4.921,0-4.921,0-1.079.295-1.043,1.976,0,6.261,0,6.261.066.859-1.235.81-3.666,0-3.666,0a2.307,2.307,0,0,1-2.095-2.061C5875.122,3096.526,5875.237,3088.415,5875.237,3088.415Z" transform="translate(-5871.563 -3072.248)"/>
</svg>
