<?xml version="1.0" encoding="iso-8859-1"?>
<!-- Generator: Adobe Illustrator 19.0.0, SVG Export Plug-In . SVG Version: 6.00 Build 0)  -->
<svg version="1.1" id="Layer_1" xmlns="http://www.w3.org/2000/svg" xmlns:xlink="http://www.w3.org/1999/xlink" x="0px" y="0px"
	 viewBox="0 0 512 512" style="enable-background:new 0 0 512 512;" xml:space="preserve">
<g>
	<g>
		<g>
			<polygon points="320.006,258.801 388.209,213.34 320.006,167.857 			"/>
			<path d="M256,0C114.837,0,0,114.837,0,256c0,141.141,114.837,256,256,256c141.184,0,256-114.859,256-256
				C512,114.837,397.184,0,256,0z M438.507,231.083l-128,85.333c-3.563,2.368-7.68,3.584-11.84,3.584
				c-3.456,0-6.912-0.832-10.048-2.517c-6.955-3.733-11.285-10.944-11.285-18.816v-64H170.667c-35.285,0-64,28.715-64,64
				c0,11.776-9.536,21.333-21.333,21.333C73.557,320,64,310.443,64,298.667C64,239.851,111.851,192,170.667,192h106.667v-64
				c0-7.872,4.331-15.104,11.285-18.816c6.912-3.712,15.36-3.307,21.888,1.067l128,85.333c5.931,3.947,9.493,10.603,9.493,17.749
				C448,220.459,444.437,227.115,438.507,231.083z"/>
		</g>
	</g>
</g>
<g>
</g>
<g>
</g>
<g>
</g>
<g>
</g>
<g>
</g>
<g>
</g>
<g>
</g>
<g>
</g>
<g>
</g>
<g>
</g>
<g>
</g>
<g>
</g>
<g>
</g>
<g>
</g>
<g>
</g>
</svg>
